<?xml version="1.0" encoding="UTF-8" standalone="no"?>
<!-- Created with Inkscape (http://www.inkscape.org/) -->

<svg
   xmlns:dc="http://purl.org/dc/elements/1.1/"
   xmlns:cc="http://creativecommons.org/ns#"
   xmlns:rdf="http://www.w3.org/1999/02/22-rdf-syntax-ns#"
   xmlns:svg="http://www.w3.org/2000/svg"
   xmlns="http://www.w3.org/2000/svg"
   xmlns:sodipodi="http://sodipodi.sourceforge.net/DTD/sodipodi-0.dtd"
   xmlns:inkscape="http://www.inkscape.org/namespaces/inkscape"
   version="1.1"
   id="svg2"
   width="1000"
   height="300"
   viewBox="0 0 1000 300"
   sodipodi:docname="amphicyon.svg"
   inkscape:version="0.92.2 2405546, 2018-03-11"
   inkscape:export-filename="/home/kfickel/Git/bachelorthesis/honeypotfilter/logo/amphicyon.png"
   inkscape:export-xdpi="96"
   inkscape:export-ydpi="96">
  <metadata
     id="metadata8">
    <rdf:RDF>
      <cc:Work
         rdf:about="">
        <dc:format>image/svg+xml</dc:format>
        <dc:type
           rdf:resource="http://purl.org/dc/dcmitype/StillImage" />
        <dc:title></dc:title>
      </cc:Work>
    </rdf:RDF>
  </metadata>
  <defs
     id="defs6" />
  <sodipodi:namedview
     pagecolor="#ffffff"
     bordercolor="#666666"
     borderopacity="1"
     objecttolerance="10"
     gridtolerance="10"
     guidetolerance="10"
     inkscape:pageopacity="0"
     inkscape:pageshadow="2"
     inkscape:window-width="1366"
     inkscape:window-height="730"
     id="namedview4"
     showgrid="false"
     showguides="true"
     inkscape:zoom="0.62105675"
     inkscape:cx="372.20005"
     inkscape:cy="199.59257"
     inkscape:window-x="0"
     inkscape:window-y="38"
     inkscape:window-maximized="0"
     inkscape:current-layer="svg2" />
  <g
     id="g857"
     transform="matrix(0.69798082,0,0,0.69798082,-115.7701,229.77135)"
     style="stroke-width:1.43270409">
    <path
       sodipodi:nodetypes="cccc"
       inkscape:connector-curvature="0"
       id="path835"
       d="m 427.24247,-271.26958 c -6.61885,-14.24852 -14.70702,-28.19094 -3.7003,-46.11145 5.20409,14.42169 14.15163,28.84337 23.05572,43.26506 z"
       style="fill:#212121;stroke:none;stroke-width:1.43270409px;stroke-linecap:butt;stroke-linejoin:miter;stroke-opacity:1" />
    <path
       sodipodi:nodetypes="cccc"
       inkscape:connector-curvature="0"
       id="path821"
       d="m 286.00446,-71.14161 c 4.579,20.44113 13.26966,33.95996 22.13969,40.45524 -2.21407,-15.71025 -6.51172,-32.70701 -5.63556,-47.90222 z"
       style="fill:#fff176;stroke:none;stroke-width:1.43270409px;stroke-linecap:butt;stroke-linejoin:miter;stroke-opacity:1" />
    <path
       sodipodi:nodetypes="ccccccc"
       inkscape:connector-curvature="0"
       id="path829"
       d="m 356.91633,48.7584 c 27.02492,-14.24404 44.36624,-79.05802 65.20265,-125.61985 l 51.23494,57.78163 -90.51506,90.23042 -17.64759,-6.26205 -5.97741,-5.40813 c -4.34362,-4.46845 -2.04967,-7.27751 -2.29753,-10.72202 z"
       style="fill:#212121;stroke:none;stroke-width:1.43270409px;stroke-linecap:butt;stroke-linejoin:miter;stroke-opacity:1" />
    <path
       sodipodi:nodetypes="cccc"
       inkscape:connector-curvature="0"
       id="path823"
       d="m 273.32446,-67.11621 12.68,-4.0254 c -0.33878,8.59757 2.39227,19.21669 4.70246,27.43584 -5.88042,-5.63308 -12.98874,-13.68895 -17.38246,-23.41044 z"
       style="fill:#fff176;stroke:none;stroke-width:1.43270409px;stroke-linecap:butt;stroke-linejoin:miter;stroke-opacity:1" />
    <path
       style="fill:#424242;stroke:none;stroke-width:1.43270409px;stroke-linecap:butt;stroke-linejoin:miter;stroke-opacity:1"
       d="m 251.18478,-77.58224 c 3.99761,6.87255 10.29228,18.7198 13.68635,16.10159 C 431.37338,-129.51574 426.4337,32.13675 369.33018,60.69014 361.50079,62.63432 355.6245,52.95835 356.91633,48.7584 349.626,62.6116 376.49741,84.55265 399.31939,69.74729 660.37162,-239.4967 383.0545,-286.59161 251.18478,-77.58224 Z"
       id="path825"
       inkscape:connector-curvature="0"
       sodipodi:nodetypes="cccccc" />
    <path
       inkscape:connector-curvature="0"
       id="path827"
       d="m 385.11596,58.34187 -16.79367,-20.20934 34.7259,9.67771 z"
       style="fill:#fff176;stroke:none;stroke-width:1.43270409px;stroke-linecap:butt;stroke-linejoin:miter;stroke-opacity:1" />
    <path
       sodipodi:nodetypes="ccscccccccc"
       inkscape:connector-curvature="0"
       id="path817"
       d="m 533.76765,-308.64003 c -48.14517,13.26677 -97.31154,-5.12406 -144.10922,49.91492 -20.67436,57.11365 -88.31141,105.62395 -129.19714,129.91328 -16.98206,10.08867 -15.66265,9.55813 -18.13239,10.17053 -7.80833,4.11183 3.82596,18.00638 8.85588,41.05906 3.99761,6.87255 10.29228,18.7198 13.68635,16.10159 227.03556,-86.95175 165.61403,92.35132 104.45905,122.17079 -7.82939,1.94418 -13.70568,-7.73179 -12.41385,-11.93174 -7.29033,13.8532 19.58108,35.79425 42.40306,20.98889 62.69792,-50.0497 95.83513,-115.47062 152.96508,-169.87176 43.15082,-37.85007 24.68131,-211.02945 -18.51682,-208.51556 z"
       style="fill:#757575;stroke:none;stroke-width:1.43270409px;stroke-linecap:butt;stroke-linejoin:miter;stroke-opacity:1" />
    <path
       sodipodi:nodetypes="ccc"
       inkscape:connector-curvature="0"
       id="path819"
       d="m 260.04065,-128.70478 c -65.39136,25.10081 -22.45545,34.52076 -8.85587,51.12254 10.69442,-16.39564 10.91614,-33.66401 8.85587,-51.12254 z"
       style="fill:#424242;stroke:none;stroke-width:1.43270409px;stroke-linecap:butt;stroke-linejoin:miter;stroke-opacity:1" />
    <path
       sodipodi:nodetypes="cccc"
       inkscape:connector-curvature="0"
       id="path831"
       d="m 390.26224,-158.29145 c -3.77477,5.39441 -8.05422,10.9907 -5.33365,13.78698 9.22674,6.55941 15.82909,-5.62683 23.34731,-11.27111 -6.11147,-1.58703 -12.16833,-2.79183 -18.01366,-2.51587 z"
       style="fill:#c62828;stroke:none;stroke-width:1.43270409px;stroke-linecap:butt;stroke-linejoin:miter;stroke-opacity:1" />
    <path
       sodipodi:nodetypes="ccssc"
       inkscape:connector-curvature="0"
       id="path833"
       d="m 516.0497,-218.89609 c 3.9798,2.56203 9.10135,2.46 15.35826,-0.29122 4.046,-10.9931 16.90232,-65.63552 8.26674,-80.83076 -8.04208,-14.15091 -38.204,-19.24308 -48.38855,-6.54669 -17.33685,21.61268 24.76355,87.66867 24.76355,87.66867 z"
       style="fill:#212121;stroke:none;stroke-width:1.43270409px;stroke-linecap:butt;stroke-linejoin:miter;stroke-opacity:1" />
  </g>
  <g
     id="g864"
     transform="matrix(0.88842374,0,0,0.88842374,-260.22168,276.17869)"
     style="stroke-width:1.12558901">
    <text
       id="text839"
       y="-134.27722"
       x="654.88586"
       style="font-style:normal;font-weight:normal;font-size:125.77896118px;line-height:1.25;font-family:sans-serif;letter-spacing:0px;word-spacing:0px;fill:#000000;fill-opacity:1;stroke:none;stroke-width:1.12558901"
       xml:space="preserve"><tspan
         style="font-style:normal;font-variant:normal;font-weight:bold;font-stretch:normal;font-family:'Roboto Condensed';-inkscape-font-specification:'Roboto Condensed,  Bold';stroke-width:0.22706184"
         y="-134.27722"
         x="654.88586"
         id="tspan837"
         sodipodi:role="line">Amphicyon<tspan
   id="tspan845"
   style="font-style:normal;font-variant:normal;font-weight:normal;font-stretch:normal;font-family:'Roboto Condensed';-inkscape-font-specification:'Roboto Condensed, ';stroke-width:0.22706184">.ts</tspan></tspan></text>
    <text
       xml:space="preserve"
       style="font-style:normal;font-weight:normal;font-size:50.86412048px;line-height:1.25;font-family:sans-serif;letter-spacing:0px;word-spacing:0px;fill:#212121;fill-opacity:1;stroke:none;stroke-width:1.12558889"
       x="653.67889"
       y="-66.292572"
       id="text843"><tspan
         sodipodi:role="line"
         id="tspan841"
         x="653.67889"
         y="-66.292572"
         style="font-style:normal;font-variant:normal;font-weight:300;font-stretch:normal;font-family:'Roboto Condensed';-inkscape-font-specification:'Roboto Condensed, Light';fill:#212121;stroke-width:0.22706181">static analysis to detect honeypots</tspan></text>
  </g>
</svg>
